# xmcd
#
# Track frame offsets:
#   150
#   15564
#   28208
#   39706
#   54866
#   68343
#   85438
#   97675
#   111393
#   127415
#   143204
#   156530
#   172317
#   183104
#
# Disc length: 2611 seconds
#
# Revision: 0
# Processed by: cddbd v1.5.1PL0 Copyright (c) Steve Scherf et al.
# Submitted via: uFREEDB ActiveX Control 1.5
#
DISCID=c20a310e
DTITLE=Almir Sater - Canções Violadas
DYEAR=1900
DGENRE=Country
TTITLE0=Musica1
TTITLE1=Musica2
TTITLE2=Musica3
TTITLE3=Musica4
TTITLE4=Musica5
TTITLE5=musica6
TTITLE6=musica 7
TTITLE7=musica8
TTITLE8=musica9
TTITLE9=musica10
TTITLE10=musica11
TTITLE11=musica12
TTITLE12=musica13
TTITLE13=musica14
EXTD=
EXTT0=
EXTT1=
EXTT2=
EXTT3=
EXTT4=
EXTT5=
EXTT6=
EXTT7=
EXTT8=
EXTT9=
EXTT10=
EXTT11=
EXTT12=
EXTT13=
PLAYORDER=
